<svg width="23" height="23" viewBox="0 0 23 23" fill="none" xmlns="http://www.w3.org/2000/svg">
<path d="M8.5 9C8.5 8.44772 8.94772 8 9.5 8H10.5C11.0523 8 11.5 8.44772 11.5 9V10C11.5 10.5523 11.0523 11 10.5 11H9.5C8.94772 11 8.5 10.5523 8.5 10V9Z" stroke="#F2683A" stroke-linecap="round" stroke-linejoin="round"/>
<path d="M13.5 9C13.5 8.44772 13.9477 8 14.5 8H15.5C16.0523 8 16.5 8.44772 16.5 9V10C16.5 10.5523 16.0523 11 15.5 11H14.5C13.9477 11 13.5 10.5523 13.5 10V9Z" stroke="#F2683A" stroke-linecap="round" stroke-linejoin="round"/>
<path d="M8.5 14C8.5 13.4477 8.94772 13 9.5 13H10.5C11.0523 13 11.5 13.4477 11.5 14V15C11.5 15.5523 11.0523 16 10.5 16H9.5C8.94772 16 8.5 15.5523 8.5 15V14Z" stroke="#F2683A" stroke-linecap="round" stroke-linejoin="round"/>
<path d="M13.5 14C13.5 13.4477 13.9477 13 14.5 13H15.5C16.0523 13 16.5 13.4477 16.5 14V15C16.5 15.5523 16.0523 16 15.5 16H14.5C13.9477 16 13.5 15.5523 13.5 15V14Z" stroke="#F2683A" stroke-linecap="round" stroke-linejoin="round"/>
</svg>
