<svg width="14" height="14" viewBox="0 0 14 14" fill="none" xmlns="http://www.w3.org/2000/svg">
<path d="M13 8.83695C11.1471 9.58697 9.1218 9.99998 7 9.99998C4.8782 9.99998 2.85286 9.58697 1 8.83695M9.66667 3.99999V2.66666C9.66667 1.93028 9.06971 1.33333 8.33333 1.33333H5.66667C4.93029 1.33333 4.33333 1.93028 4.33333 2.66666V3.99999M7 8H7.00667M2.33333 13.3333H11.6667C12.403 13.3333 13 12.7364 13 12V5.33333C13 4.59695 12.403 3.99999 11.6667 3.99999H2.33333C1.59695 3.99999 1 4.59695 1 5.33333V12C1 12.7364 1.59695 13.3333 2.33333 13.3333Z" stroke="#6D28D9" stroke-linecap="round" stroke-linejoin="round"/>
</svg>
