<svg width="14" height="14" viewBox="0 0 14 14" fill="none" xmlns="http://www.w3.org/2000/svg">
<path d="M11.6667 6.33333H2.33333M11.6667 6.33333C12.403 6.33333 13 6.93029 13 7.66667V11.6667C13 12.403 12.403 13 11.6667 13H2.33333C1.59695 13 1 12.403 1 11.6667V7.66667C1 6.93029 1.59695 6.33333 2.33333 6.33333M11.6667 6.33333V5C11.6667 4.26362 11.0697 3.66667 10.3333 3.66667M2.33333 6.33333V5C2.33333 4.26362 2.93029 3.66667 3.66667 3.66667M3.66667 3.66667V2.33333C3.66667 1.59695 4.26362 1 5 1H9C9.73638 1 10.3333 1.59695 10.3333 2.33333V3.66667M3.66667 3.66667H10.3333" stroke="#6D28D9" stroke-linecap="round" stroke-linejoin="round"/>
</svg>
