<svg width="12" height="14" viewBox="0 0 12 14" fill="none" xmlns="http://www.w3.org/2000/svg">
<path d="M2.66669 6.66667V8.33333M2.66669 6.66667V2.66667C2.66669 2.11438 3.1144 1.66667 3.66669 1.66667C4.21897 1.66667 4.66669 2.11438 4.66669 2.66667M2.66669 6.66667C2.66669 6.11438 2.21897 5.66667 1.66669 5.66667C1.1144 5.66667 0.666687 6.11438 0.666687 6.66667V8C0.666687 10.7614 2.90526 13 5.66669 13C8.42811 13 10.6667 10.7614 10.6667 8V4.66667C10.6667 4.11438 10.219 3.66667 9.66669 3.66667C9.1144 3.66667 8.66669 4.11438 8.66669 4.66667M4.66669 2.66667V6.33333M4.66669 2.66667V2C4.66669 1.44772 5.1144 1 5.66669 1C6.21897 1 6.66669 1.44772 6.66669 2V2.66667M6.66669 2.66667V6.33333M6.66669 2.66667C6.66669 2.11438 7.1144 1.66667 7.66669 1.66667C8.21897 1.66667 8.66669 2.11438 8.66669 2.66667V4.66667M8.66669 4.66667V6.33333" stroke="#6D28D9" stroke-linecap="round" stroke-linejoin="round"/>
</svg>
