<svg width="14" height="14" viewBox="0 0 14 14" fill="none" xmlns="http://www.w3.org/2000/svg">
<path d="M5.44238 10.3333H8.55768M7.00003 1V1.66667M11.2427 2.75736L10.7713 3.22876M13.0001 6.99997H12.3334M1.66673 6.99996H1.00006M3.22879 3.22876L2.75738 2.75736M4.643 9.35704C3.34126 8.05529 3.34126 5.94474 4.643 4.64299C5.94475 3.34125 8.0553 3.34125 9.35705 4.64299C10.6588 5.94474 10.6588 8.05529 9.35705 9.35704L8.99232 9.72177C8.57039 10.1437 8.33336 10.7159 8.33336 11.3126V11.6667C8.33336 12.403 7.73641 13 7.00003 13C6.26365 13 5.66669 12.403 5.66669 11.6667V11.3126C5.66669 10.7159 5.42966 10.1437 5.00774 9.72177L4.643 9.35704Z" stroke="#6D28D9" stroke-linecap="round" stroke-linejoin="round"/>
</svg>
