<svg width="118" height="26" viewBox="0 0 118 26" fill="none" xmlns="http://www.w3.org/2000/svg">
<g clip-path="url(#clip0_19_344)">
<path d="M45.2846 21.2088V9.00363H51.026C51.6623 8.98697 52.282 9.07041 52.8856 9.27077C53.3096 9.42105 53.7011 9.7049 53.9784 10.0722C54.2397 10.4562 54.4189 10.8904 54.5005 11.3579C54.5986 11.9422 54.6472 12.5266 54.6472 13.111C54.6472 13.662 54.6146 14.2296 54.517 14.764C54.4514 15.2315 54.2722 15.6823 54.0109 16.0663C53.7341 16.4503 53.3587 16.7508 52.9182 16.9178C52.2985 17.1349 51.6462 17.2517 50.9935 17.2184H48.3185V21.2088H45.2846ZM48.3022 14.8808H49.8026C50.129 14.8808 50.4554 14.8641 50.7817 14.814C50.9775 14.7806 51.1567 14.6972 51.3033 14.5636C51.434 14.4133 51.5156 14.2296 51.5321 14.0293C51.5646 13.7288 51.5972 13.4282 51.5807 13.111C51.5807 12.8104 51.5646 12.4932 51.5321 12.1927C51.5156 11.9923 51.434 11.8087 51.3199 11.6584C51.1732 11.5248 50.9935 11.4413 50.7978 11.4079C50.4879 11.3579 50.1615 11.3412 49.8356 11.3412H48.2696V14.8808H48.3022Z" fill="white"/>
<path d="M56.4417 21.2088V9.00366H60.5844L62.9661 16.2499H63.0963L65.478 9.00366H69.6047V21.2088H66.7014V13.278H66.5873L63.9938 21.2088H61.971L59.4101 13.278H59.2634V21.2088H56.4417Z" fill="white"/>
<path d="M76.9121 21.3591C76.0801 21.3758 75.2647 21.309 74.4493 21.1755C73.9107 21.092 73.4051 20.8916 72.9485 20.5743C72.5731 20.2905 72.3123 19.8898 72.1657 19.439C71.9699 18.8546 71.8718 18.2536 71.8393 17.6525C71.8067 16.9512 71.7742 16.0997 71.7742 15.1146C71.7742 14.1295 71.7902 13.278 71.8393 12.5767C71.8558 11.9757 71.9699 11.3746 72.1491 10.7902C72.2963 10.3394 72.5731 9.93867 72.932 9.65482C73.389 9.33761 73.8946 9.13725 74.4327 9.05376C75.2482 8.92019 76.0801 8.8534 76.8961 8.87011C77.7115 8.8534 78.5269 8.92019 79.3424 9.05376C79.881 9.13725 80.4026 9.33761 80.8596 9.65482C81.2345 9.93867 81.5118 10.3394 81.659 10.7902C81.8382 11.3746 81.9363 11.9757 81.9689 12.5767C82.0174 13.2946 82.0339 14.1295 82.0339 15.1146C82.0339 16.0997 82.0174 16.9512 81.9689 17.6525C81.9363 18.2536 81.8382 18.8546 81.659 19.439C81.5118 19.8898 81.2345 20.2905 80.8596 20.5743C80.4026 20.8916 79.881 21.092 79.3424 21.1755C78.5434 21.309 77.7275 21.3758 76.9121 21.3591ZM76.9121 18.9715C77.255 18.9715 77.5974 18.9548 77.9237 18.9214C78.152 18.9047 78.3637 18.8212 78.5434 18.6876C78.7066 18.5374 78.8207 18.3204 78.8693 18.0866C78.9509 17.7192 79 17.3352 79 16.9512C79.0165 16.467 79.0325 15.8492 79.0325 15.0812C79.0325 14.3132 79.0325 13.6954 79 13.2112C79 12.8272 78.9509 12.4431 78.8693 12.0758C78.8207 11.8421 78.7066 11.6417 78.5434 11.4747C78.3637 11.3412 78.152 11.2577 77.9237 11.241C77.2545 11.1742 76.5697 11.1742 75.9009 11.241C75.6727 11.2577 75.4604 11.3412 75.2812 11.4747C75.118 11.625 75.0039 11.8421 74.9548 12.0758C74.8733 12.4431 74.8242 12.8272 74.8242 13.2112C74.8082 13.6954 74.7917 14.3132 74.7917 15.0812C74.7917 15.8492 74.8082 16.467 74.8242 16.9512C74.8242 17.3352 74.8733 17.7192 74.9548 18.0866C75.0039 18.3204 75.118 18.5207 75.2812 18.6876C75.4604 18.8212 75.6727 18.9047 75.9009 18.9214C76.2433 18.9715 76.5697 18.9882 76.9121 18.9715Z" fill="white"/>
<path d="M88.6725 21.359C88.2485 21.359 87.7755 21.3424 87.2534 21.3257C86.7313 21.309 86.2422 21.2756 85.7366 21.2255C85.2311 21.1754 84.7906 21.142 84.3991 21.0919V19.439C84.8231 19.4723 85.2471 19.5058 85.7041 19.5391C86.1606 19.5725 86.6011 19.6059 87.0086 19.6226C87.4166 19.6393 87.7915 19.656 88.0853 19.656C88.5749 19.6727 89.0479 19.6393 89.521 19.5725C89.8143 19.5391 90.0916 19.439 90.3524 19.2887C90.4831 19.2052 90.5972 19.0883 90.6628 18.9381C90.7279 18.7711 90.7769 18.6041 90.7929 18.4371C90.8095 18.2368 90.8255 18.0197 90.8255 17.786C90.8255 17.5189 90.8095 17.2517 90.7929 16.9846C90.7769 16.8009 90.7279 16.6339 90.6298 16.4837C90.5321 16.3501 90.4015 16.2666 90.2548 16.2332C90.0266 16.1664 89.8143 16.133 89.5695 16.0997L86.7313 15.7657C86.2748 15.7156 85.8182 15.582 85.3938 15.3984C85.0679 15.2481 84.7906 15.0144 84.5783 14.7138C84.3826 14.4133 84.252 14.0627 84.1869 13.6953C84.1218 13.2612 84.0893 12.8271 84.0893 12.393C84.0893 11.6083 84.1869 10.9738 84.3991 10.5063C84.5783 10.0722 84.9047 9.70488 85.2961 9.4544C85.7201 9.20397 86.1932 9.03703 86.6827 8.97024C87.2699 8.88675 87.8571 8.85333 88.4442 8.85333C88.9008 8.85333 89.3578 8.87004 89.8308 8.90346C90.3039 8.93683 90.7604 8.97024 91.1684 9.00361C91.5273 9.03703 91.8697 9.08711 92.2121 9.1706V10.7902C91.9187 10.74 91.5923 10.7067 91.2009 10.6566C90.8094 10.6065 90.418 10.5898 89.994 10.5731C89.5695 10.5564 89.1946 10.5397 88.8357 10.5397C88.3461 10.5397 87.8731 10.5564 87.384 10.6232C87.0902 10.6566 86.7969 10.74 86.5356 10.8903C86.3238 10.9905 86.1771 11.1909 86.1116 11.4246C86.0625 11.7084 86.0465 11.9923 86.0465 12.2761C86.03 12.5934 86.0625 12.9106 86.1281 13.2111C86.1606 13.4115 86.3073 13.5952 86.503 13.6786C86.7804 13.7788 87.0742 13.8456 87.384 13.879L90.2223 14.2129C90.5482 14.2463 90.8745 14.2964 91.2009 14.3799C91.4782 14.4467 91.739 14.5803 91.9673 14.7639C92.2121 14.9643 92.3918 15.2314 92.4894 15.532C92.571 15.7156 92.6361 15.8993 92.6691 16.0997C92.7016 16.3167 92.7502 16.5504 92.7667 16.8009C92.7992 17.0847 92.8157 17.3686 92.8157 17.6691C92.8318 18.2368 92.7667 18.8045 92.62 19.3555C92.5219 19.7562 92.3262 20.1235 92.0654 20.424C91.8206 20.6912 91.5273 20.9083 91.1844 21.0251C90.8094 21.1587 90.434 21.2589 90.0426 21.2923C89.6186 21.3424 89.1456 21.359 88.6725 21.359Z" fill="white"/>
<path d="M98.8186 21.3591C98.1984 21.3757 97.5787 21.3256 96.975 21.2255C96.5675 21.1587 96.1596 21.0084 95.8172 20.7747C95.5399 20.5743 95.3116 20.2738 95.1975 19.9399C95.0503 19.5057 94.9687 19.0549 94.9362 18.6041C94.9036 18.0698 94.8711 17.4353 94.8711 16.684C94.8711 15.9327 94.8876 15.2982 94.9362 14.7806C94.9527 14.3298 95.0503 13.879 95.1975 13.4449C95.3116 13.111 95.5399 12.8104 95.8172 12.61C96.1596 12.3763 96.5675 12.226 96.975 12.1593C98.1984 11.9756 99.4543 11.9756 100.694 12.1593C101.102 12.2093 101.51 12.3596 101.869 12.5934C102.146 12.7937 102.374 13.0942 102.488 13.4282C102.635 13.8623 102.733 14.3131 102.75 14.7639C102.798 15.2982 102.815 15.9327 102.815 16.6673C102.815 17.402 102.798 18.0365 102.75 18.5874C102.733 19.0382 102.635 19.489 102.488 19.9232C102.374 20.2571 102.146 20.5576 101.869 20.758C101.526 20.9917 101.118 21.142 100.711 21.2088C100.075 21.3089 99.4383 21.3591 98.8186 21.3591ZM98.8186 19.7729C99.2261 19.7896 99.6501 19.7562 100.042 19.6727C100.303 19.6226 100.515 19.4723 100.662 19.2386C100.808 18.938 100.873 18.6208 100.89 18.3036C100.923 17.8862 100.939 17.3352 100.939 16.6673C100.939 15.9995 100.923 15.4485 100.89 15.0478C100.89 14.7305 100.808 14.4133 100.662 14.1127C100.531 13.8957 100.303 13.7454 100.058 13.6953C99.6501 13.6285 99.2426 13.5952 98.8346 13.5952C98.4271 13.5785 98.0192 13.6119 97.6112 13.6953C97.3504 13.7287 97.1382 13.8957 96.9915 14.1127C96.8448 14.3966 96.7793 14.7138 96.7633 15.0478C96.7307 15.4485 96.7142 15.9995 96.7142 16.6673C96.7142 17.3352 96.7307 17.8862 96.7633 18.3036C96.7633 18.6375 96.8448 18.9547 96.9915 19.2386C97.1222 19.4557 97.3504 19.6226 97.6112 19.6727C98.0027 19.7562 98.4106 19.7896 98.8186 19.7729Z" fill="white"/>
<path d="M105.979 21.2088V13.7454H104.234V12.1593H105.979V11.0573C105.963 10.5731 106.012 10.1056 106.093 9.6214C106.158 9.30418 106.289 8.98692 106.501 8.73649C106.713 8.51942 106.974 8.35248 107.268 8.26899C107.643 8.15213 108.034 8.08534 108.442 8.06863C108.899 8.03522 109.453 8.01855 110.073 8.01855V9.43775C109.584 9.43775 109.192 9.45442 108.899 9.48783C108.67 9.50454 108.442 9.55462 108.23 9.65477C108.083 9.73827 107.969 9.87184 107.92 10.0388C107.855 10.2559 107.838 10.4896 107.838 10.7067V12.1426H110.073V13.7287H107.838V21.2088H105.979Z" fill="white"/>
<path d="M112.699 21.2088V13.7455H110.937V12.1593H112.699V9.53796H114.543V12.1593H116.614V13.7455H114.543V21.2088H112.699Z" fill="white"/>
<path d="M6.00683 24.5645H5.6806C4.40832 24.5645 3.13603 24.5645 1.86374 24.5645C1.58645 24.5645 1.53752 24.481 1.53752 24.2138C1.55383 20.5239 1.55383 16.8173 1.53752 13.1273C1.5049 11.1905 1.9453 9.28714 2.79349 7.56738C3.72324 5.69736 5.12601 4.12788 6.85501 3.02591C7.96418 2.29126 9.20385 1.77367 10.5087 1.47313C11.6179 1.20599 12.7597 1.1225 13.9015 1.22268C17.6857 1.6234 20.6381 3.44333 22.677 6.74925C24.0146 8.86972 24.6017 11.4076 24.3408 13.9121C23.9819 17.5686 22.3182 20.4738 19.3495 22.5609C18.6644 23.0284 17.9467 23.4458 17.1964 23.7797C16.5276 24.097 15.8099 24.314 15.0759 24.3975C14.4724 24.4476 13.8852 24.5144 13.2817 24.5812C13.0696 24.5978 12.9718 24.5478 12.9718 24.2973C12.9718 22.9616 12.9718 21.6259 12.9718 20.2734C12.9718 20.0731 13.0207 19.9896 13.2327 19.9729C15.8099 19.8227 17.751 18.5704 19.0233 16.2996C19.7083 15.0641 20.0019 13.6449 19.8388 12.2257C19.6105 9.85479 18.436 8.05159 16.4787 6.81603C15.1249 5.9478 13.4937 5.61387 11.9115 5.89772C9.46484 6.31512 7.67059 7.70095 6.59401 9.98836C6.13732 10.9568 5.9742 12.0253 5.99051 13.1106C6.00683 16.7839 5.99051 20.4571 5.99051 24.1303L6.00683 24.5645Z" fill="url(#paint0_radial_19_344)"/>
<path d="M13.885 1.22302C15.3368 1.3399 16.7559 1.72392 18.0771 2.34169C19.3983 2.99286 20.5727 3.89447 21.5514 5.01314C22.5301 6.13181 23.2967 7.41744 23.835 8.80327C24.357 10.2058 24.6016 11.6917 24.5364 13.1944C24.4711 14.6971 24.1612 16.1664 23.5903 17.5522C23.0194 18.9381 22.1712 20.1903 21.111 21.2255C20.0507 22.2607 18.8437 23.0955 17.5062 23.7133C16.8537 24.0305 16.1523 24.2642 15.4346 24.3812C14.7169 24.4479 13.9992 24.5147 13.2816 24.5648L15.4346 24.281C16.136 24.1307 16.8211 23.8969 17.4572 23.5463C18.7622 22.9285 19.9366 22.077 20.9642 21.0418C21.9755 20.0066 22.7911 18.7878 23.3457 17.4354C23.8839 16.083 24.1938 14.6304 24.2428 13.1777C24.308 11.7252 24.0796 10.2558 23.5903 8.88672C23.3457 8.2022 23.0194 7.55101 22.6443 6.91652C22.2691 6.29875 21.845 5.69769 21.3883 5.14671C20.4585 4.02804 19.3168 3.10973 18.0281 2.45857C17.392 2.12464 16.7232 1.85749 16.0218 1.65713C15.3042 1.47347 14.6028 1.3232 13.885 1.22302Z" fill="#D6E50E"/>
<path d="M6.61026 9.97205C6.3819 10.5397 6.23508 11.1241 6.16984 11.7419C6.13722 12.0424 6.1209 12.3429 6.10459 12.6435C6.10459 12.944 6.10459 13.2446 6.1209 13.5618C6.15352 14.7806 6.15352 16.0162 6.15352 17.235C6.15352 18.4539 6.15352 19.6894 6.1209 20.9083C6.08828 22.1271 6.05566 23.3627 6.00672 24.5815V24.5982H5.99041L5.66418 24.5815L5.99041 24.5648L5.9741 24.5815C5.92517 23.3627 5.87623 22.1271 5.85992 20.9083C5.84361 19.6894 5.8273 18.4539 5.8273 17.235C5.8273 16.0162 5.84361 14.7806 5.85992 13.5618C5.85992 13.2613 5.85992 12.944 5.89255 12.6435C5.90885 12.3262 5.94148 12.0257 6.00672 11.7252C6.1209 11.1074 6.31663 10.5063 6.61026 9.97205Z" fill="#D6E50E"/>
<path d="M35.2367 24.5481V24.1808C35.2367 20.5243 35.2367 16.851 35.2367 13.1945C35.2693 11.4079 34.9105 9.62139 34.1765 7.98513C32.6758 4.67923 29.7561 2.27493 26.2818 1.47349C25.1726 1.22304 24.0471 1.13956 22.9216 1.20635C22.5139 1.23974 22.1061 1.32322 21.7146 1.4401C21.9919 1.52358 22.2692 1.59037 22.5302 1.67385C24.6833 2.30832 26.5917 3.59396 28.0271 5.36379C29.7724 7.46755 30.7348 10.1557 30.7348 12.9106C30.7348 16.6507 30.7348 20.4074 30.7348 24.1474V24.5314H35.2367V24.5481Z" fill="url(#paint1_radial_19_344)"/>
<path d="M30.7511 24.5481C32.2517 24.5147 33.736 24.498 35.2367 24.4646L35.1551 24.5481C35.1388 21.9768 35.0899 19.3889 35.0899 16.8176L35.0735 12.9607C35.0572 11.6918 34.8615 10.4228 34.4863 9.20398C34.2906 8.60291 34.0459 8.01855 33.7523 7.45085C33.4587 6.88315 33.1325 6.34887 32.7573 5.84798C32.007 4.82949 31.0936 3.94457 30.0497 3.24332C27.9455 1.80741 25.4498 1.10616 22.9379 1.22304C24.1939 1.10616 25.4662 1.20634 26.7058 1.50688C27.9455 1.80741 29.1199 2.34171 30.1802 3.04296C31.2567 3.74421 32.2028 4.62913 32.9857 5.66432C33.3772 6.18193 33.7197 6.73287 34.0296 7.30057C34.3396 7.86827 34.6005 8.46934 34.7963 9.08712C35.204 10.3227 35.3998 11.625 35.3998 12.9273L35.3835 16.8009C35.3835 19.3722 35.3345 21.9601 35.3182 24.5314V24.6149H35.2367C33.736 24.5982 32.2354 24.5815 30.7511 24.5481Z" fill="#FF974A"/>
</g>
<defs>
<radialGradient id="paint0_radial_19_344" cx="0" cy="0" r="1" gradientUnits="userSpaceOnUse" gradientTransform="translate(12.4998 11.9338) scale(14.3964 14.7364)">
<stop stop-color="#66730D"/>
<stop offset="0.18" stop-color="#6D7B11"/>
<stop offset="0.45" stop-color="#81911A"/>
<stop offset="0.78" stop-color="#A2B42A"/>
<stop offset="1" stop-color="#BACF36"/>
</radialGradient>
<radialGradient id="paint1_radial_19_344" cx="0" cy="0" r="1" gradientUnits="userSpaceOnUse" gradientTransform="translate(29.7474 13.6467) scale(9.73948 18.0448)">
<stop stop-color="#A74303"/>
<stop offset="1" stop-color="#EF7103"/>
</radialGradient>
<clipPath id="clip0_19_344">
<rect width="115.076" height="23.4586" fill="white" transform="translate(1.53748 1.17294)"/>
</clipPath>
</defs>
</svg>
